<svg xmlns="http://www.w3.org/2000/svg" viewBox="0 0 200 200">
  <!-- Background circle -->
  <circle cx="100" cy="100" r="90" fill="#2d2937" />

  <!-- Security shield spiral -->
  <path d="M100,20
           C140,20 170,50 170,90
           C170,130 140,160 100,160
           C60,160 30,130 30,90
           C30,50 60,20 100,20 Z"
        fill="none"
        stroke="#44dc9e"
        stroke-width="4"
        stroke-dasharray="565"
        stroke-dashoffset="0">
    <animate attributeName="stroke-dashoffset"
             from="565"
             to="0"
             dur="3s"
             repeatCount="indefinite" />
  </path>

  <!-- Inner shield shape -->
  <path d="M100,40
           L125,50
           Q130,80 125,110
           Q100,130 75,110
           Q70,80 75,50 Z"
        fill="none"
        stroke="#44dc9e"
        stroke-width="3" />

  <!-- Lock symbol -->
  <rect x="90" y="80" width="20" height="25" rx="2" fill="#44dc9e" />
  <circle cx="100" cy="75" r="8" fill="none" stroke="#44dc9e" stroke-width="3" />

  <!-- Digital signals -->
  <path d="M60,100 L70,100 L70,90 L80,90 L80,100 L90,100" fill="none" stroke="#44dc9e" stroke-width="2" />
  <path d="M110,100 L120,100 L120,90 L130,90 L130,100 L140,100" fill="none" stroke="#44dc9e" stroke-width="2" />
</svg>
